<svg xmlns="http://www.w3.org/2000/svg" xmlns:xlink="http://www.w3.org/1999/xlink" width="50px" height="50px" viewBox="0 0 500 500" fill="#EF927C">
<path fill-rule="evenodd" clip-rule="evenodd" d="M299.358,110.277c-13.795,13.763-27.123,27.994-36.111,46.564  c-1.506,0.523-18.528-27.004-33.085-25.925c-15.49,1.148-28.578,30.909-30.584,31.627c-5.705-15.201-14.977-26.835-22.807-39.912  c16.665-36.233,32.38-73.418,57.017-101.681C261.488,44.883,281.466,76.538,299.358,110.277z" id="path-0" style="position: relative;"/>
<path fill-rule="evenodd" clip-rule="evenodd" d="M185.324,87.47c-3.817,10.438-9.28,19.229-13.304,29.459  c-9.548-10.725-20.127-20.418-36.111-24.708c-2.942,18.914-1.605,42.108-1.9,63.669c-7.759-21.066-15.922-41.729-31.359-55.117  c1.675-19.231,2.547-39.266,11.403-51.315c16.807,1.565,22.898,13.847,34.21,20.906C163.638,73.045,174.146,80.593,185.324,87.47z" id="path-2" style="position: relative;"/>
<path fill-rule="evenodd" clip-rule="evenodd" d="M385.835,63.713c2.883,23.846-1.37,50.639-5.702,74.123  c-3.172,17.192-5.008,34.618-10.453,45.614c-5.447,11-19.067,20.134-27.559,29.459c-9.703,10.656-15.975,22.114-25.657,30.409  c3.826-26.436-10.411-42.718-27.559-51.316c-0.791-16.313-11.909-22.301-19.006-32.31c17.189-36.66,49.626-58.073,80.774-80.774  C360.11,102.175,378.326,74.234,385.835,63.713z" id="path-3" style="position: relative;"/>
<path fill-rule="evenodd" clip-rule="evenodd" d="M49.433,87.47c23.833,27.132,46.574,57.168,69.371,88.377  c11.179,15.304,21.979,26.767,26.608,47.515c-10.418-2.256-23.402-10.172-37.061-12.354c-22.275-40.127-44.474-80.33-60.818-126.388  c58.394,5.909,76.572,52.034,89.327,103.582c-3.022,0.913-7-6.144-10.453-10.453C102.625,148.07,76.785,114.145,49.433,87.47z" id="path-4" style="position: relative;"/>
<path fill-rule="evenodd" clip-rule="evenodd" d="M145.412,102.675c28.097,17.833,42.937,48.924,57.018,80.774  c-26.596,3.497-46.29,18.961-45.614,46.564c-6.819-4.224-8.997-18-11.404-30.409c-4.772-24.61-5.408-56.802-4.751-88.377  c9.255,16.403,12.437,38.879,14.254,62.719C157.099,148.637,151.031,123.349,145.412,102.675z" id="path-5" style="position: relative;"/>
<path fill-rule="evenodd" clip-rule="evenodd" d="M488.466,107.426c-6.604,9.46-18.724,12.267-28.509,17.105  c-28.777,14.23-56.343,33.291-81.725,52.266c1.269-3.483,2.247-7.256,2.851-11.403c15.369-12.013,30.136-25.549,47.515-36.111  C445.545,118.983,464.595,107.562,488.466,107.426z" id="path-6" style="position: relative;"/>
<path fill-rule="evenodd" clip-rule="evenodd" d="M8.57,126.432c17.026,7.365,37.059,11.723,57.017,16.155  c9.676,22.952,23.995,46.326,33.26,66.521c-17.19-2.607-40.815-2.833-57.968,0c-16.176-18.668-27.229-42.458-32.31-72.222  C8.57,133.401,8.57,129.917,8.57,126.432z" id="path-7" style="position: relative;"/>
<path fill-rule="evenodd" clip-rule="evenodd" d="M26.626,227.163c0.95,0,1.9,0,2.851,0c21.594,11.769,57.291,16.271,83.625,24.708  c22.503,7.21,43.462,14.982,64.62,21.856c11.976,14.949,28.408,25.441,50.365,30.409C141.585,337.82,65.648,274.001,26.626,227.163z  " id="path-8" style="position: relative;"/>
<path fill-rule="evenodd" clip-rule="evenodd" d="M453.305,302.235c-17.254,13.472-47.341,14.111-74.122,18.056  c-1.114-2.143,3.881-7.914,6.652-12.354c3.567-5.715,6.874-10.85,9.503-17.105C414.978,294.316,437.542,294.875,453.305,302.235z" id="path-9" style="position: relative;"/>
<path fill-rule="evenodd" clip-rule="evenodd" d="M115.953,306.987c-16.902-0.515-29.939,10.239-19.956,25.657  c-19.298-6.676-44.059-7.891-55.117-22.807c14.73-8.711,36.356-10.525,56.067-14.254  C102.295,300.372,111.23,301.573,115.953,306.987z" id="path-10" style="position: relative;"/>
<path fill-rule="evenodd" clip-rule="evenodd" d="M454.256,309.838c-18.285,30.615-74.588,57.4-123.538,37.062  c7.676-2.562,13.905-4.415,21.856-8.553c6.191-3.222,12.473-9.736,18.056-11.403c6.491-1.938,15.857-1.007,22.807-1.901  C414.705,322.307,438.251,318.613,454.256,309.838z" id="path-11" style="position: relative;"/>
<path fill-rule="evenodd" clip-rule="evenodd" d="M248.993,330.744c1.698-0.268,1.95,0.898,0.95,0.95  c-12.264,24.74-40.66,46.47-76.023,45.614c-32.428-0.785-56.125-19.409-68.421-42.764  C153.147,326.152,210.917,358.243,248.993,330.744z" id="path-12" style="position: relative;"/>
<path fill-rule="evenodd" clip-rule="evenodd" d="M282.253,479.939c-9.186,0-18.372,0-27.558,0c-1.318-2.167-6.615-0.354-9.503-0.95  c-0.121-31.606-3.854-61.987-7.602-91.228c-0.967-7.542-4.681-19.407-3.801-23.758c1.178-5.821,10.895-10.937,14.254-15.204  c4.426-5.621,6.034-9.642,8.553-16.155c4.468,2.185,8.366,4.938,12.354,7.603C274.847,384.728,283.52,431.458,282.253,479.939z" id="path-13" style="position: relative;"/>
<path fill-rule="evenodd" clip-rule="evenodd" d="M490.366,115.979c0,2.851,0,5.702,0,8.553  c-12.987,66.521-40.023,118.99-91.228,147.294c-3.05-14.973-15.838-2.006-21.856,1.9c-10.006-4.058-18.991,6.098-29.459,7.603  c-11.864,1.705-24.463,0.128-36.111-1.9c67.485-22.281,132.339-59.011,163.45-111.184c-37.981,54.829-99.963,85.661-171.052,107.383  c6.939-18.277,15.618-29.131,27.558-42.763C374.26,184.236,429.479,142.204,490.366,115.979z" id="path-14" style="position: relative;"/>
<path fill-rule="evenodd" clip-rule="evenodd" d="M25.675,217.66c45.406-10.869,101.6-4.207,131.14,17.105  c2.808,13.664,8.522,24.42,16.155,33.26c-24.329-8.41-60.577-23.217-91.228-31.36C60.88,231.124,40.016,229.973,25.675,217.66z" id="path-15" style="position: relative;"/>
<path fill-rule="evenodd" clip-rule="evenodd" d="M246.142,294.633c22.705-29.071,93.729,6.861,124.488-16.154  c4.286-0.802,4.745,2.224,7.603,2.851c6.13-0.536,8.553-9.799,13.304-8.553c-1.228,27.915-17.271,41.014-31.359,56.067  c-28.463,20.217-102.028,21.656-114.035-14.255c-1.017,3.577,4.83,8.455,5.702,13.305c-31.707,26.924-87.792-2.95-127.338-1.9  c-11.228,0.298-22.983,7.326-26.608-6.652c7.786-3.792,19.038-9.239,30.409-8.553c12.231,0.738,27.129,8.437,42.763,9.503  c27.619,1.883,47.719-4.225,68.421-13.304c-33.764-8.999-73.58-35.131-77.923-73.172c-4.667-40.863,37.65-39.772,62.719-54.167  c26.833,9.458,59.082,8.632,76.973,27.558c17.602,18.619,11.517,52.557-3.801,72.222  C273.715,277.859,254.262,280.579,246.142,294.633z" id="path-16" style="position: relative;"/>
<path fill-rule="evenodd" clip-rule="evenodd" d="M204.835,163.9c0,0,7.596-27.235,26.238-26.07c0.651,0.041-1.716,3.4-1.815,6.584  c-0.23,7.367,0.782,18.424,1.497,18.38c1.023-0.063,1.458-24.998,2.538-24.854c7.582,1.005,16.52,7.419,26.614,23.605  c0,0,14.43,12.958,17.375,18.848s-5.889,4.712-15.019,1.178s-36.813-7.657-41.23-7.657s-15.019,1.178-15.019,1.178l-2.945-8.541" id="path-17" style="position: relative;"/>
</svg>