<svg opacity=".5" xmlns="http://www.w3.org/2000/svg" width="760" height="13.8" viewBox="0 0 760 13.8"><g fill="#fff"><path d="M0 7h370v1H0zM390 7h370v1H390z"/></g><path fill="#fff" d="M380 13.8h-.2c-.2 0-3.8-1.2-6-3.9-1.2-1.5-2.9-4.5-1.3-6 .4-.4.9-.6 1.4-.6 1.3 0 2.7 1.2 3.5 2.3v.1-.3c0-.6 0-3.6 1.3-4.9.7-.7 1.8-.7 2.5 0 1.3 1.3 1.3 4.3 1.3 4.9v.3-.1c.4-.5 1.9-2.3 3.5-2.3.5 0 1 .2 1.4.6 1.6 1.5 0 4.5-1.3 6-2.2 2.7-5.8 3.9-6 3.9h-.1zm-6.1-9.5c-.3 0-.5.1-.7.3-.9.9.2 3.3 1.4 4.6 1.8 2.2 4.7 3.3 5.4 3.6.7-.2 3.6-1.4 5.4-3.6 1.1-1.4 2.3-3.7 1.4-4.6-.2-.2-.5-.3-.7-.3-.8 0-1.8.8-2.7 1.9-.4.6-.8 1.2-1.2 2.1-.1.2-.4.3-.6.3-.2-.1-.4-.3-.3-.6.2-1 .3-1.8.3-2.6 0-1.5-.3-3.5-1-4.2-.3-.3-.7-.3-1.1 0-.7.7-1 2.7-1 4.2 0 .8.1 1.6.3 2.6 0 .2-.1.5-.3.6-.2.1-.5 0-.6-.3-.4-.8-.8-1.5-1.2-2.1-.9-1.1-2-1.9-2.8-1.9z"/></svg>